<mxfile host="Electron" modified="2024-05-11T14:59:33.247Z" agent="Mozilla/5.0 (X11; Linux x86_64) AppleWebKit/537.36 (KHTML, like Gecko) draw.io/24.2.5 Chrome/122.0.6261.156 Electron/29.3.0 Safari/537.36" etag="eLx2jP-Eo5JtChFwIpKf" version="24.2.5" type="device">
  <diagram name="Page-1" id="sY0UtRl6luIR-gZXcX-C">
    <mxGraphModel dx="1011" dy="610" grid="1" gridSize="10" guides="1" tooltips="1" connect="1" arrows="1" fold="1" page="1" pageScale="1" pageWidth="850" pageHeight="1100" math="1" shadow="0">
      <root>
        <mxCell id="0" />
        <mxCell id="1" parent="0" />
        <mxCell id="BpamBJUhA99dMUKTIjoe-1" value="a" style="ellipse;whiteSpace=wrap;html=1;fillColor=none;" vertex="1" parent="1">
          <mxGeometry x="330" y="370" width="120" height="30" as="geometry" />
        </mxCell>
        <mxCell id="BpamBJUhA99dMUKTIjoe-2" value="b" style="ellipse;whiteSpace=wrap;html=1;fillColor=none;" vertex="1" parent="1">
          <mxGeometry x="230" y="430" width="120" height="30" as="geometry" />
        </mxCell>
        <mxCell id="BpamBJUhA99dMUKTIjoe-3" value="r" style="ellipse;whiteSpace=wrap;html=1;fillColor=none;" vertex="1" parent="1">
          <mxGeometry x="425" y="430" width="120" height="30" as="geometry" />
        </mxCell>
        <mxCell id="BpamBJUhA99dMUKTIjoe-4" value="c" style="ellipse;whiteSpace=wrap;html=1;fillColor=none;" vertex="1" parent="1">
          <mxGeometry x="425" y="500" width="120" height="30" as="geometry" />
        </mxCell>
        <mxCell id="BpamBJUhA99dMUKTIjoe-5" value="c" style="ellipse;whiteSpace=wrap;html=1;fillColor=none;" vertex="1" parent="1">
          <mxGeometry x="230" y="500" width="120" height="30" as="geometry" />
        </mxCell>
        <mxCell id="BpamBJUhA99dMUKTIjoe-6" value="" style="endArrow=none;html=1;rounded=0;" edge="1" parent="1">
          <mxGeometry width="50" height="50" relative="1" as="geometry">
            <mxPoint x="390" y="410" as="sourcePoint" />
            <mxPoint x="390" y="330" as="targetPoint" />
          </mxGeometry>
        </mxCell>
        <mxCell id="BpamBJUhA99dMUKTIjoe-7" value="" style="endArrow=none;html=1;rounded=0;" edge="1" parent="1">
          <mxGeometry width="50" height="50" relative="1" as="geometry">
            <mxPoint x="360" y="410" as="sourcePoint" />
            <mxPoint x="360" y="330" as="targetPoint" />
          </mxGeometry>
        </mxCell>
        <mxCell id="BpamBJUhA99dMUKTIjoe-8" value="" style="endArrow=none;html=1;rounded=0;" edge="1" parent="1">
          <mxGeometry width="50" height="50" relative="1" as="geometry">
            <mxPoint x="420" y="410" as="sourcePoint" />
            <mxPoint x="420" y="330" as="targetPoint" />
          </mxGeometry>
        </mxCell>
        <mxCell id="BpamBJUhA99dMUKTIjoe-9" value="" style="endArrow=none;html=1;rounded=0;" edge="1" parent="1">
          <mxGeometry width="50" height="50" relative="1" as="geometry">
            <mxPoint x="455" y="448" as="sourcePoint" />
            <mxPoint x="420" y="409" as="targetPoint" />
          </mxGeometry>
        </mxCell>
        <mxCell id="BpamBJUhA99dMUKTIjoe-10" value="" style="endArrow=none;html=1;rounded=0;" edge="1" parent="1">
          <mxGeometry width="50" height="50" relative="1" as="geometry">
            <mxPoint x="455" y="550" as="sourcePoint" />
            <mxPoint x="455" y="448" as="targetPoint" />
          </mxGeometry>
        </mxCell>
        <mxCell id="BpamBJUhA99dMUKTIjoe-11" value="" style="endArrow=none;html=1;rounded=0;" edge="1" parent="1">
          <mxGeometry width="50" height="50" relative="1" as="geometry">
            <mxPoint x="322" y="442" as="sourcePoint" />
            <mxPoint x="389.71" y="410" as="targetPoint" />
          </mxGeometry>
        </mxCell>
        <mxCell id="BpamBJUhA99dMUKTIjoe-12" value="" style="endArrow=none;html=1;rounded=0;" edge="1" parent="1">
          <mxGeometry width="50" height="50" relative="1" as="geometry">
            <mxPoint x="263" y="441" as="sourcePoint" />
            <mxPoint x="359" y="410" as="targetPoint" />
          </mxGeometry>
        </mxCell>
        <mxCell id="BpamBJUhA99dMUKTIjoe-13" value="" style="endArrow=none;html=1;rounded=0;" edge="1" parent="1">
          <mxGeometry width="50" height="50" relative="1" as="geometry">
            <mxPoint x="263" y="480" as="sourcePoint" />
            <mxPoint x="263" y="440" as="targetPoint" />
          </mxGeometry>
        </mxCell>
        <mxCell id="BpamBJUhA99dMUKTIjoe-14" value="" style="endArrow=none;html=1;rounded=0;" edge="1" parent="1">
          <mxGeometry width="50" height="50" relative="1" as="geometry">
            <mxPoint x="322" y="540" as="sourcePoint" />
            <mxPoint x="322" y="442" as="targetPoint" />
          </mxGeometry>
        </mxCell>
        <mxCell id="BpamBJUhA99dMUKTIjoe-15" value="ab" style="text;html=1;align=center;verticalAlign=middle;whiteSpace=wrap;rounded=0;" vertex="1" parent="1">
          <mxGeometry x="330" y="304" width="60" height="30" as="geometry" />
        </mxCell>
        <mxCell id="BpamBJUhA99dMUKTIjoe-16" value="abc" style="text;html=1;align=center;verticalAlign=middle;whiteSpace=wrap;rounded=0;" vertex="1" parent="1">
          <mxGeometry x="360" y="304" width="60" height="30" as="geometry" />
        </mxCell>
        <mxCell id="BpamBJUhA99dMUKTIjoe-17" value="arc" style="text;html=1;align=center;verticalAlign=middle;whiteSpace=wrap;rounded=0;" vertex="1" parent="1">
          <mxGeometry x="390" y="304" width="60" height="30" as="geometry" />
        </mxCell>
        <mxCell id="BpamBJUhA99dMUKTIjoe-18" value="$$\frac 1 2 3 (3 - 1) = 3$$" style="text;html=1;align=center;verticalAlign=middle;whiteSpace=wrap;rounded=0;" vertex="1" parent="1">
          <mxGeometry x="480" y="334" width="105" height="30" as="geometry" />
        </mxCell>
        <mxCell id="BpamBJUhA99dMUKTIjoe-19" value="$$\frac 1 2 1 (1 - 1) = 0$$" style="text;html=1;align=center;verticalAlign=middle;whiteSpace=wrap;rounded=0;" vertex="1" parent="1">
          <mxGeometry x="570" y="390" width="100" height="30" as="geometry" />
        </mxCell>
        <mxCell id="BpamBJUhA99dMUKTIjoe-20" value="$$\frac 1 2 1 (1 - 1) = 0$$" style="text;html=1;align=center;verticalAlign=middle;whiteSpace=wrap;rounded=0;" vertex="1" parent="1">
          <mxGeometry x="570" y="470" width="100" height="30" as="geometry" />
        </mxCell>
        <mxCell id="BpamBJUhA99dMUKTIjoe-21" value="$$\frac 1 2 1 (1 - 1) = 0$$" style="text;html=1;align=center;verticalAlign=middle;whiteSpace=wrap;rounded=0;" vertex="1" parent="1">
          <mxGeometry x="110" y="470" width="100" height="30" as="geometry" />
        </mxCell>
        <mxCell id="BpamBJUhA99dMUKTIjoe-22" value="$$\frac 1 2 2 (2 - 1) = 1$$" style="text;html=1;align=center;verticalAlign=middle;whiteSpace=wrap;rounded=0;" vertex="1" parent="1">
          <mxGeometry x="110" y="410" width="100" height="30" as="geometry" />
        </mxCell>
        <mxCell id="BpamBJUhA99dMUKTIjoe-23" value="" style="endArrow=none;html=1;rounded=0;entryX=1;entryY=0.5;entryDx=0;entryDy=0;exitX=0;exitY=0.5;exitDx=0;exitDy=0;" edge="1" parent="1" source="BpamBJUhA99dMUKTIjoe-18" target="BpamBJUhA99dMUKTIjoe-1">
          <mxGeometry width="50" height="50" relative="1" as="geometry">
            <mxPoint x="470" y="350" as="sourcePoint" />
            <mxPoint x="440" y="480" as="targetPoint" />
          </mxGeometry>
        </mxCell>
        <mxCell id="BpamBJUhA99dMUKTIjoe-24" value="" style="endArrow=none;html=1;rounded=0;entryX=1;entryY=0.5;entryDx=0;entryDy=0;exitX=0;exitY=0.5;exitDx=0;exitDy=0;" edge="1" parent="1" source="BpamBJUhA99dMUKTIjoe-19" target="BpamBJUhA99dMUKTIjoe-3">
          <mxGeometry width="50" height="50" relative="1" as="geometry">
            <mxPoint x="545" y="410" as="sourcePoint" />
            <mxPoint x="525" y="420" as="targetPoint" />
          </mxGeometry>
        </mxCell>
        <mxCell id="BpamBJUhA99dMUKTIjoe-26" value="" style="endArrow=none;html=1;rounded=0;exitX=0;exitY=0.5;exitDx=0;exitDy=0;entryX=1;entryY=0.5;entryDx=0;entryDy=0;" edge="1" parent="1" source="BpamBJUhA99dMUKTIjoe-20" target="BpamBJUhA99dMUKTIjoe-4">
          <mxGeometry width="50" height="50" relative="1" as="geometry">
            <mxPoint x="570" y="430" as="sourcePoint" />
            <mxPoint x="545" y="470" as="targetPoint" />
          </mxGeometry>
        </mxCell>
        <mxCell id="BpamBJUhA99dMUKTIjoe-27" value="" style="endArrow=none;html=1;rounded=0;exitX=0;exitY=0.5;exitDx=0;exitDy=0;entryX=1;entryY=0.5;entryDx=0;entryDy=0;" edge="1" parent="1" source="BpamBJUhA99dMUKTIjoe-5" target="BpamBJUhA99dMUKTIjoe-21">
          <mxGeometry width="50" height="50" relative="1" as="geometry">
            <mxPoint x="230" y="510" as="sourcePoint" />
            <mxPoint x="205" y="540" as="targetPoint" />
          </mxGeometry>
        </mxCell>
        <mxCell id="BpamBJUhA99dMUKTIjoe-28" value="" style="endArrow=none;html=1;rounded=0;exitX=0;exitY=0.5;exitDx=0;exitDy=0;entryX=1;entryY=0.5;entryDx=0;entryDy=0;" edge="1" parent="1" source="BpamBJUhA99dMUKTIjoe-2" target="BpamBJUhA99dMUKTIjoe-22">
          <mxGeometry width="50" height="50" relative="1" as="geometry">
            <mxPoint x="210" y="450" as="sourcePoint" />
            <mxPoint x="190" y="420" as="targetPoint" />
          </mxGeometry>
        </mxCell>
      </root>
    </mxGraphModel>
  </diagram>
</mxfile>
